<svg width="46" height="34" viewBox="0 0 46 34" fill="none" xmlns="http://www.w3.org/2000/svg">
<path d="M35.4167 0C31.8542 0 29.6875 0.6875 28.4375 1.27083C26.8333 0.479167 25 0 22.9167 0C20.8333 0 19 0.479167 17.3958 1.27083C16.1458 0.6875 13.9792 0 10.4167 0C4.16667 0 0 16.6667 0 20.8333C0 22.5625 2.75 24.1458 6.54167 24.7917C7.875 29.4583 14.1667 33.0208 21.875 33.3333V24.4167C20.6458 23.6458 18.75 22.25 18.75 20.8333C18.75 18.75 22.9167 18.75 22.9167 18.75C22.9167 18.75 27.0833 18.75 27.0833 20.8333C27.0833 22.25 25.1875 23.6458 23.9583 24.4167V33.3333C31.6667 33.0208 37.9583 29.4583 39.2917 24.7917C43.0833 24.1458 45.8333 22.5625 45.8333 20.8333C45.8333 16.6667 41.6667 0 35.4167 0ZM6.5625 20.5625C5.52083 20.3125 4.70833 20.0208 4.16667 19.7917C4.6875 14.0208 8.75 5 10.5208 4.16667C11.6458 4.16667 12.5 4.29167 13.2708 4.39583C8.89583 9.20833 7.16667 16.75 6.5625 20.5625ZM16.6667 16.6667C16.1141 16.6667 15.5842 16.4472 15.1935 16.0565C14.8028 15.6658 14.5833 15.1359 14.5833 14.5833C14.5833 13.4583 15.5208 12.5 16.6667 12.5C17.2192 12.5 17.7491 12.7195 18.1398 13.1102C18.5305 13.5009 18.75 14.0308 18.75 14.5833C18.75 15.75 17.8125 16.6667 16.6667 16.6667ZM29.1667 16.6667C28.6141 16.6667 28.0842 16.4472 27.6935 16.0565C27.3028 15.6658 27.0833 15.1359 27.0833 14.5833C27.0833 13.4583 28.0208 12.5 29.1667 12.5C29.7192 12.5 30.2491 12.7195 30.6398 13.1102C31.0305 13.5009 31.25 14.0308 31.25 14.5833C31.25 15.75 30.3125 16.6667 29.1667 16.6667ZM39.2708 20.5625C38.6667 16.75 36.9375 9.20833 32.5625 4.39583C33.3333 4.29167 34.1875 4.16667 35.3125 4.16667C37.0833 5 41.1458 14.0208 41.6667 19.7917C41.1458 20.0208 40.3333 20.3125 39.2708 20.5625Z" fill="black"/>
</svg>
