<svg width="27" height="26" viewBox="0 0 27 26" fill="none" xmlns="http://www.w3.org/2000/svg">
<path d="M9.35714 5.63463H11.9964V17.7168C11.9964 17.8739 12.125 18.0025 12.2821 18.0025H14.425C14.5821 18.0025 14.7107 17.8739 14.7107 17.7168V5.63463H17.3571C17.5964 5.63463 17.7286 5.35962 17.5821 5.17391L13.5821 0.109625C13.5554 0.0754754 13.5213 0.0478576 13.4823 0.0288642C13.4433 0.00987079 13.4005 0 13.3571 0C13.3138 0 13.271 0.00987079 13.232 0.0288642C13.193 0.0478576 13.1589 0.0754754 13.1321 0.109625L9.13214 5.17034C8.98572 5.35963 9.11786 5.63463 9.35714 5.63463ZM26.4286 16.6453H24.2857C24.1286 16.6453 24 16.7739 24 16.9311V22.4311H2.71429V16.9311C2.71429 16.7739 2.58571 16.6453 2.42857 16.6453H0.285714C0.128571 16.6453 0 16.7739 0 16.9311V24.0025C0 24.6346 0.510714 25.1453 1.14286 25.1453H25.5714C26.2036 25.1453 26.7143 24.6346 26.7143 24.0025V16.9311C26.7143 16.7739 26.5857 16.6453 26.4286 16.6453Z" fill="black"/>
</svg>
